<svg width="592.2625244140625px" height="125.61252441406249px" xmlns="http://www.w3.org/2000/svg" viewBox="-46.13126220703123 12.193737792968754 592.2625244140625 125.61252441406249" style="background: rgba(0, 0, 0, 0);" preserveAspectRatio="xMidYMid"><defs><linearGradient id="editing-outline-gradient" x1="1.4135454576426012" x2="-0.4135454576426011" y1="0.9067366430757998" y2="0.09326335692420018"><stop offset="0" stop-color="#ee4208"></stop><stop offset="1" stop-color="#4139ff"></stop></linearGradient><filter id="editing-outline" x="-100%" y="-100%" width="300%" height="300%"><feMorphology in="SourceGraphic" operator="dilate" radius="1" result="outline"></feMorphology><feComposite operator="out" in="outline" in2="SourceAlpha"></feComposite></filter></defs><g filter="url(#editing-outline)"><g transform="translate(37.74938726425171, 95.73500061035156)"><path d="M9.28-32.51L9.28-32.51Q9.28-30.02 10.50-28.16L10.50-28.16L10.50-28.16Q11.71-26.30 13.44-25.06L13.44-25.06L13.44-25.06Q15.17-23.81 18.30-21.89L18.30-21.89L18.30-21.89Q21.63-19.90 23.49-18.56L23.49-18.56L23.49-18.56Q25.34-17.22 26.66-15.14L26.66-15.14L26.66-15.14Q27.97-13.06 27.97-10.18L27.97-10.18L27.97-10.18Q27.97-7.10 26.43-4.61L26.43-4.61L26.43-4.61Q24.90-2.11 21.92-0.67L21.92-0.67L21.92-0.67Q18.94 0.77 14.78 0.77L14.78 0.77L14.78 0.77Q9.86 0.77 5.76-1.47L5.76-1.47L5.76-1.47Q5.44-1.66 5.34-1.92L5.34-1.92L5.34-1.92Q5.25-2.18 5.18-2.69L5.18-2.69L4.35-11.39L4.35-11.39Q4.29-11.65 4.64-11.71L4.64-11.71L4.64-11.71Q4.99-11.78 5.06-11.52L5.06-11.52L5.06-11.52Q6.08-6.91 8.86-3.58L8.86-3.58L8.86-3.58Q11.65-0.26 16.26-0.26L16.26-0.26L16.26-0.26Q19.46-0.26 21.66-2.02L21.66-2.02L21.66-2.02Q23.87-3.78 23.87-7.62L23.87-7.62L23.87-7.62Q23.87-10.50 22.59-12.61L22.59-12.61L22.59-12.61Q21.31-14.72 19.49-16.10L19.49-16.10L19.49-16.10Q17.66-17.47 14.53-19.33L14.53-19.33L14.53-19.33Q11.46-21.18 9.70-22.53L9.70-22.53L9.70-22.53Q7.94-23.87 6.72-25.92L6.72-25.92L6.72-25.92Q5.50-27.97 5.50-30.72L5.50-30.72L5.50-30.72Q5.50-33.92 7.20-36.19L7.20-36.19L7.20-36.19Q8.90-38.46 11.62-39.58L11.62-39.58L11.62-39.58Q14.34-40.70 17.41-40.70L17.41-40.70L17.41-40.70Q21.18-40.70 24.90-39.17L24.90-39.17L24.90-39.17Q25.86-38.85 25.86-38.08L25.86-38.08L26.30-30.72L26.30-30.72Q26.30-30.46 25.98-30.46L25.98-30.46L25.98-30.46Q25.66-30.46 25.60-30.72L25.60-30.72L25.60-30.72Q25.09-34.05 22.85-36.90L22.85-36.90L22.85-36.90Q20.61-39.74 16.38-39.74L16.38-39.74L16.38-39.74Q12.80-39.74 11.04-37.66L11.04-37.66L11.04-37.66Q9.28-35.58 9.28-32.51L9.28-32.51ZM68.61-29.95L68.61-29.95Q68.74-29.95 68.74-29.57L68.74-29.57L68.74-29.57Q68.74-29.18 68.61-29.18L68.61-29.18L68.61-29.18Q66.50-29.18 65.50-28.83L65.50-28.83L65.50-28.83Q64.51-28.48 64.13-27.58L64.13-27.58L64.13-27.58Q63.74-26.69 63.74-24.77L63.74-24.77L63.74-5.18L63.74-5.18Q63.74-3.26 64.10-2.34L64.10-2.34L64.10-2.34Q64.45-1.41 65.41-1.09L65.41-1.09L65.41-1.09Q66.37-0.77 68.42-0.77L68.42-0.77L68.42-0.77Q68.61-0.77 68.61-0.38L68.61-0.38L68.61-0.38Q68.61 0 68.42 0L68.42 0L64.26-0.06L61.06 0L61.06 0Q60.29 0 60.10-0.19L60.10-0.19L60.10-0.19Q59.90-0.38 59.90-1.22L59.90-1.22L59.90-4.93L59.90-4.93Q56.96-1.98 53.98-0.61L53.98-0.61L53.98-0.61Q51.01 0.77 47.74 0.77L47.74 0.77L47.74 0.77Q43.20 0.77 40.22-1.63L40.22-1.63L40.22-1.63Q37.25-4.03 37.25-8.26L37.25-8.26L37.25-24.77L37.25-24.77Q37.25-26.69 36.96-27.58L36.96-27.58L36.96-27.58Q36.67-28.48 35.87-28.83L35.87-28.83L35.87-28.83Q35.07-29.18 33.34-29.18L33.34-29.18L33.34-29.18Q33.22-29.18 33.22-29.57L33.22-29.57L33.22-29.57Q33.22-29.95 33.34-29.95L33.34-29.95L35.84-29.89L35.84-29.89Q38.02-29.76 39.17-29.76L39.17-29.76L39.17-29.76Q40.77-29.76 43.20-29.89L43.20-29.89L45.82-29.95L45.82-29.95Q45.95-29.95 45.95-29.57L45.95-29.57L45.95-29.57Q45.95-29.18 45.82-29.18L45.82-29.18L45.82-29.18Q43.78-29.18 42.78-28.80L42.78-28.80L42.78-28.80Q41.79-28.42 41.44-27.49L41.44-27.49L41.44-27.49Q41.09-26.56 41.09-24.64L41.09-24.64L41.09-10.43L41.09-10.43Q41.09-0.96 49.47-0.96L49.47-0.96L49.47-0.96Q52.29-0.96 54.75-2.18L54.75-2.18L54.75-2.18Q57.22-3.39 59.90-6.21L59.90-6.21L59.90-24.64L59.90-24.64Q59.90-26.56 59.58-27.49L59.58-27.49L59.58-27.49Q59.26-28.42 58.30-28.80L58.30-28.80L58.30-28.80Q57.34-29.18 55.30-29.18L55.30-29.18L55.30-29.18Q55.17-29.18 55.17-29.57L55.17-29.57L55.17-29.57Q55.17-29.95 55.30-29.95L55.30-29.95L58.11-29.89L58.11-29.89Q60.54-29.76 62.02-29.76L62.02-29.76L62.02-29.76Q63.36-29.76 65.79-29.89L65.79-29.89L68.61-29.95ZM108.29-0.77L108.29-0.77Q108.42-0.77 108.42-0.38L108.42-0.38L108.42-0.38Q108.42 0 108.29 0L108.29 0L108.29 0Q106.69 0 105.79-0.06L105.79-0.06L102.46-0.13L98.43-0.06L98.43-0.06Q97.47 0 95.87 0L95.87 0L95.87 0Q95.74 0 95.74-0.38L95.74-0.38L95.74-0.38Q95.74-0.77 95.87-0.77L95.87-0.77L95.87-0.77Q97.92-0.77 98.91-1.15L98.91-1.15L98.91-1.15Q99.90-1.54 100.26-2.46L100.26-2.46L100.26-2.46Q100.61-3.39 100.61-5.31L100.61-5.31L100.61-18.05L100.61-18.05Q100.61-24.19 98.46-26.59L98.46-26.59L98.46-26.59Q96.32-28.99 92.29-28.99L92.29-28.99L92.29-28.99Q89.41-28.99 86.94-27.81L86.94-27.81L86.94-27.81Q84.48-26.62 81.73-23.68L81.73-23.68L81.73-5.31L81.73-5.31Q81.73-3.39 82.08-2.46L82.08-2.46L82.08-2.46Q82.43-1.54 83.39-1.15L83.39-1.15L83.39-1.15Q84.35-0.77 86.34-0.77L86.34-0.77L86.34-0.77Q86.53-0.77 86.53-0.38L86.53-0.38L86.53-0.38Q86.53 0 86.34 0L86.34 0L86.34 0Q84.61 0 83.58-0.06L83.58-0.06L79.68-0.13L75.90-0.06L75.90-0.06Q74.88 0 73.09 0L73.09 0L73.09 0Q72.96 0 72.96-0.38L72.96-0.38L72.96-0.38Q72.96-0.77 73.09-0.77L73.09-0.77L73.09-0.77Q75.14-0.77 76.13-1.12L76.13-1.12L76.13-1.12Q77.12-1.47 77.50-2.37L77.50-2.37L77.50-2.37Q77.89-3.26 77.89-5.18L77.89-5.18L77.89-24.77L77.89-24.77Q77.89-26.69 77.54-27.58L77.54-27.58L77.54-27.58Q77.18-28.48 76.22-28.83L76.22-28.83L76.22-28.83Q75.26-29.18 73.28-29.18L73.28-29.18L73.28-29.18Q73.09-29.18 73.09-29.57L73.09-29.57L73.09-29.57Q73.09-29.95 73.28-29.95L73.28-29.95L77.44-29.89L80.58-29.95L80.58-29.95Q81.34-29.95 81.54-29.73L81.54-29.73L81.54-29.73Q81.73-29.50 81.73-28.74L81.73-28.74L81.73-24.96L81.73-24.96Q84.74-27.97 87.68-29.34L87.68-29.34L87.68-29.34Q90.62-30.72 93.95-30.72L93.95-30.72L93.95-30.72Q98.69-30.72 101.57-28.13L101.57-28.13L101.57-28.13Q104.45-25.54 104.45-20.16L104.45-20.16L104.45-5.18L104.45-5.18Q104.45-3.26 104.74-2.34L104.74-2.34L104.74-2.34Q105.02-1.41 105.82-1.09L105.82-1.09L105.82-1.09Q106.62-0.77 108.29-0.77L108.29-0.77ZM128.06 0.77L128.06 0.77Q122.94 0.77 119.14-1.38L119.14-1.38L119.14-1.38Q115.33-3.52 113.34-7.04L113.34-7.04L113.34-7.04Q111.36-10.56 111.36-14.46L111.36-14.46L111.36-14.46Q111.36-19.46 113.60-23.14L113.60-23.14L113.60-23.14Q115.84-26.82 120-28.77L120-28.77L120-28.77Q124.16-30.72 129.79-30.72L129.79-30.72L129.79-30.72Q132.48-30.72 134.91-30.21L134.91-30.21L134.91-30.21Q137.34-29.70 139.01-28.74L139.01-28.74L139.01-28.74Q139.39-28.54 139.49-28.22L139.49-28.22L139.49-28.22Q139.58-27.90 139.65-27.33L139.65-27.33L140.29-21.31L140.29-21.31Q140.29-21.12 139.94-21.09L139.94-21.09L139.94-21.09Q139.58-21.06 139.52-21.25L139.52-21.25L139.52-21.25Q138.11-25.66 135.30-27.71L135.30-27.71L135.30-27.71Q132.48-29.76 128.26-29.76L128.26-29.76L128.26-29.76Q122.62-29.76 119.26-25.89L119.26-25.89L119.26-25.89Q115.90-22.02 115.90-15.30L115.90-15.30L115.90-15.30Q115.90-10.88 117.57-7.46L117.57-7.46L117.57-7.46Q119.23-4.03 122.34-2.11L122.34-2.11L122.34-2.11Q125.44-0.19 129.60-0.19L129.60-0.19L129.60-0.19Q132.80-0.19 134.30-0.77L134.30-0.77L134.30-0.77Q135.81-1.34 136.32-2.98L136.32-2.98L136.32-2.98Q136.83-4.61 136.83-8.06L136.83-8.06L136.83-8.06Q136.83-9.73 136.48-10.40L136.48-10.40L136.48-10.40Q136.13-11.07 135.01-11.30L135.01-11.30L135.01-11.30Q133.89-11.52 131.14-11.52L131.14-11.52L131.14-11.52Q130.75-11.52 130.75-12.03L130.75-12.03L130.75-12.03Q130.75-12.22 130.85-12.38L130.85-12.38L130.85-12.38Q130.94-12.54 131.07-12.54L131.07-12.54L131.07-12.54Q134.40-12.29 137.79-12.29L137.79-12.29L137.79-12.29Q139.33-12.29 142.91-12.42L142.91-12.42L142.91-12.42Q143.04-12.42 143.14-12.26L143.14-12.26L143.14-12.26Q143.23-12.10 143.23-11.97L143.23-11.97L143.23-11.97Q143.23-11.52 142.91-11.52L142.91-11.52L142.91-11.52Q141.63-11.58 141.12-11.33L141.12-11.33L141.12-11.33Q140.61-11.07 140.48-10.27L140.48-10.27L140.48-10.27Q140.35-9.47 140.35-7.42L140.35-7.42L140.35-7.42Q140.35-4.54 140.48-3.39L140.48-3.39L140.48-3.39Q140.61-2.24 140.61-1.79L140.61-1.79L140.61-1.79Q140.61-1.41 140.51-1.31L140.51-1.31L140.51-1.31Q140.42-1.22 139.90-1.02L139.90-1.02L139.90-1.02Q135.68 0.77 128.06 0.77L128.06 0.77ZM191.04-29.95L191.04-29.95Q191.23-29.95 191.23-29.57L191.23-29.57L191.23-29.57Q191.23-29.18 191.04-29.18L191.04-29.18L191.04-29.18Q189.12-29.18 187.78-28.10L187.78-28.10L187.78-28.10Q186.43-27.01 185.28-24.19L185.28-24.19L175.74-0.06L175.74-0.06Q175.68 0.19 175.04 0.19L175.04 0.19L175.04 0.19Q174.40 0.19 174.34-0.06L174.34-0.06L167.94-13.50L162.50-0.06L162.50-0.06Q162.43 0.19 161.79 0.19L161.79 0.19L161.79 0.19Q161.15 0.19 161.09-0.06L161.09-0.06L149.44-24.64L149.44-24.64Q148.16-27.33 147.20-28.26L147.20-28.26L147.20-28.26Q146.24-29.18 144.58-29.18L144.58-29.18L144.58-29.18Q144.38-29.18 144.38-29.57L144.38-29.57L144.38-29.57Q144.38-29.95 144.58-29.95L144.58-29.95L147.07-29.89L147.07-29.89Q148.74-29.76 149.50-29.76L149.50-29.76L149.50-29.76Q150.85-29.76 152.64-29.89L152.64-29.89L154.43-29.95L154.43-29.95Q154.56-29.95 154.56-29.57L154.56-29.57L154.56-29.57Q154.56-29.18 154.43-29.18L154.43-29.18L154.43-29.18Q153.66-29.18 153.18-28.77L153.18-28.77L153.18-28.77Q152.70-28.35 152.70-27.52L152.70-27.52L152.70-27.52Q152.70-26.62 153.34-25.28L153.34-25.28L163.33-4.86L167.23-14.98L162.69-24.64L162.69-24.64Q161.34-27.46 160.58-28.32L160.58-28.32L160.58-28.32Q159.81-29.18 158.34-29.18L158.34-29.18L158.34-29.18Q158.21-29.18 158.21-29.57L158.21-29.57L158.21-29.57Q158.21-29.95 158.34-29.95L158.34-29.95L160.45-29.89L160.45-29.89Q161.98-29.76 162.88-29.76L162.88-29.76L162.88-29.76Q163.97-29.76 165.38-29.89L165.38-29.89L166.91-29.95L166.91-29.95Q167.04-29.95 167.04-29.57L167.04-29.57L167.04-29.57Q167.04-29.18 166.91-29.18L166.91-29.18L166.91-29.18Q166.08-29.18 165.73-29.06L165.73-29.06L165.73-29.06Q165.38-28.93 165.38-28.48L165.38-28.48L165.38-28.48Q165.38-27.78 166.59-25.28L166.59-25.28L169.54-19.20L171.65-24.90L171.65-24.90Q172.42-26.94 172.42-27.90L172.42-27.90L172.42-27.90Q172.42-28.61 172.03-28.90L172.03-28.90L172.03-28.90Q171.65-29.18 170.82-29.18L170.82-29.18L170.82-29.18Q170.62-29.18 170.62-29.57L170.62-29.57L170.62-29.57Q170.62-29.95 170.82-29.95L170.82-29.95L170.82-29.95Q171.39-29.95 172.22-29.86L172.22-29.86L172.22-29.86Q173.06-29.76 173.76-29.76L173.76-29.76L173.76-29.76Q174.91-29.76 176.32-29.89L176.32-29.89L178.50-29.95L178.50-29.95Q178.69-29.95 178.69-29.57L178.69-29.57L178.69-29.57Q178.69-29.18 178.50-29.18L178.50-29.18L178.50-29.18Q176.51-29.18 175.23-28.22L175.23-28.22L175.23-28.22Q173.95-27.26 172.86-24.51L172.86-24.51L170.24-17.79L176.51-4.80L183.94-24.51L183.94-24.51Q184.45-25.79 184.45-26.94L184.45-26.94L184.45-26.94Q184.45-29.18 181.76-29.18L181.76-29.18L181.76-29.18Q181.63-29.18 181.63-29.57L181.63-29.57L181.63-29.57Q181.63-29.95 181.76-29.95L181.76-29.95L183.55-29.89L183.55-29.89Q184.83-29.76 185.98-29.76L185.98-29.76L185.98-29.76Q187.14-29.76 188.67-29.89L188.67-29.89L191.04-29.95ZM208.45 0.77L208.45 0.77Q203.97 0.77 200.48-1.34L200.48-1.34L200.48-1.34Q196.99-3.46 195.07-7.04L195.07-7.04L195.07-7.04Q193.15-10.62 193.15-14.78L193.15-14.78L193.15-14.78Q193.15-19.78 195.74-23.39L195.74-23.39L195.74-23.39Q198.34-27.01 202.34-28.86L202.34-28.86L202.34-28.86Q206.34-30.72 210.50-30.72L210.50-30.72L210.50-30.72Q214.98-30.72 218.40-28.51L218.40-28.51L218.40-28.51Q221.82-26.30 223.65-22.78L223.65-22.78L223.65-22.78Q225.47-19.26 225.47-15.42L225.47-15.42L225.47-15.42Q225.47-11.14 223.17-7.39L223.17-7.39L223.17-7.39Q220.86-3.65 216.96-1.44L216.96-1.44L216.96-1.44Q213.06 0.77 208.45 0.77L208.45 0.77ZM210.11-0.58L210.11-0.58Q215.10-0.58 218.08-4.10L218.08-4.10L218.08-4.10Q221.06-7.62 221.06-13.82L221.06-13.82L221.06-13.82Q221.06-18.11 219.55-21.63L219.55-21.63L219.55-21.63Q218.05-25.15 215.17-27.26L215.17-27.26L215.17-27.26Q212.29-29.38 208.32-29.38L208.32-29.38L208.32-29.38Q203.20-29.38 200.38-25.95L200.38-25.95L200.38-25.95Q197.57-22.53 197.57-16.38L197.57-16.38L197.57-16.38Q197.57-11.97 199.07-8.38L199.07-8.38L199.07-8.38Q200.58-4.80 203.42-2.69L203.42-2.69L203.42-2.69Q206.27-0.58 210.11-0.58L210.11-0.58ZM245.38 0.77L245.38 0.77Q240.90 0.77 237.41-1.34L237.41-1.34L237.41-1.34Q233.92-3.46 232-7.04L232-7.04L232-7.04Q230.08-10.62 230.08-14.78L230.08-14.78L230.08-14.78Q230.08-19.78 232.67-23.39L232.67-23.39L232.67-23.39Q235.26-27.01 239.26-28.86L239.26-28.86L239.26-28.86Q243.26-30.72 247.42-30.72L247.42-30.72L247.42-30.72Q251.90-30.72 255.33-28.51L255.33-28.51L255.33-28.51Q258.75-26.30 260.58-22.78L260.58-22.78L260.58-22.78Q262.40-19.26 262.40-15.42L262.40-15.42L262.40-15.42Q262.40-11.14 260.10-7.39L260.10-7.39L260.10-7.39Q257.79-3.65 253.89-1.44L253.89-1.44L253.89-1.44Q249.98 0.77 245.38 0.77L245.38 0.77ZM247.04-0.58L247.04-0.58Q252.03-0.58 255.01-4.10L255.01-4.10L255.01-4.10Q257.98-7.62 257.98-13.82L257.98-13.82L257.98-13.82Q257.98-18.11 256.48-21.63L256.48-21.63L256.48-21.63Q254.98-25.15 252.10-27.26L252.10-27.26L252.10-27.26Q249.22-29.38 245.25-29.38L245.25-29.38L245.25-29.38Q240.13-29.38 237.31-25.95L237.31-25.95L237.31-25.95Q234.50-22.53 234.50-16.38L234.50-16.38L234.50-16.38Q234.50-11.97 236-8.38L236-8.38L236-8.38Q237.50-4.80 240.35-2.69L240.35-2.69L240.35-2.69Q243.20-0.58 247.04-0.58L247.04-0.58ZM298.88-0.77L298.88-0.77Q299.07-0.77 299.07-0.38L299.07-0.38L299.07-0.38Q299.07 0 298.88 0L298.88 0L292.16 0L292.16 0Q290.11 0 289.79-0.19L289.79-0.19L289.79-0.19Q289.47-0.38 287.84-2.98L287.84-2.98L287.84-2.98Q286.21-5.57 283.26-9.28L283.26-9.28L278.27-15.68L275.65-13.12L275.65-5.18L275.65-5.18Q275.65-3.20 276-2.30L276-2.30L276-2.30Q276.35-1.41 277.31-1.09L277.31-1.09L277.31-1.09Q278.27-0.77 280.45-0.77L280.45-0.77L280.45-0.77Q280.58-0.77 280.58-0.38L280.58-0.38L280.58-0.38Q280.58 0 280.45 0L280.45 0L280.45 0Q278.66 0 277.63-0.06L277.63-0.06L273.66-0.13L269.89-0.06L269.89-0.06Q268.80 0 266.94 0L266.94 0L266.94 0Q266.82 0 266.82-0.38L266.82-0.38L266.82-0.38Q266.82-0.77 266.94-0.77L266.94-0.77L266.94-0.77Q269.06-0.77 270.05-1.09L270.05-1.09L270.05-1.09Q271.04-1.41 271.42-2.34L271.42-2.34L271.42-2.34Q271.81-3.26 271.81-5.18L271.81-5.18L271.81-24.77L271.81-24.77Q271.81-26.69 271.46-27.58L271.46-27.58L271.46-27.58Q271.10-28.48 270.11-28.83L270.11-28.83L270.11-28.83Q269.12-29.18 267.01-29.18L267.01-29.18L267.01-29.18Q266.88-29.18 266.88-29.57L266.88-29.57L266.88-29.57Q266.88-29.95 267.01-29.95L267.01-29.95L269.89-29.89L269.89-29.89Q272.32-29.76 273.66-29.76L273.66-29.76L273.66-29.76Q275.26-29.76 277.70-29.89L277.70-29.89L280.45-29.95L280.45-29.95Q280.58-29.95 280.58-29.57L280.58-29.57L280.58-29.57Q280.58-29.18 280.45-29.18L280.45-29.18L280.45-29.18Q278.40-29.18 277.38-28.80L277.38-28.80L277.38-28.80Q276.35-28.42 276-27.49L276-27.49L276-27.49Q275.65-26.56 275.65-24.64L275.65-24.64L275.65-14.66L285.82-24.90L285.82-24.90Q288.38-27.33 288.38-28.22L288.38-28.22L288.38-28.22Q288.38-28.74 287.68-28.96L287.68-28.96L287.68-28.96Q286.98-29.18 285.38-29.18L285.38-29.18L285.38-29.18Q285.18-29.18 285.18-29.57L285.18-29.57L285.18-29.57Q285.18-29.95 285.38-29.95L285.38-29.95L287.74-29.89L287.74-29.89Q289.79-29.76 291.97-29.76L291.97-29.76L291.97-29.76Q294.53-29.76 296.45-29.89L296.45-29.89L296.45-29.89Q297.02-29.95 297.79-29.95L297.79-29.95L297.79-29.95Q297.98-29.95 297.98-29.57L297.98-29.57L297.98-29.57Q297.98-29.18 297.79-29.18L297.79-29.18L297.79-29.18Q295.62-29.18 292.64-28L292.64-28L292.64-28Q289.66-26.82 287.17-24.38L287.17-24.38L281.02-18.30L285.44-12.67L285.44-12.67Q290.18-6.59 292.03-4.42L292.03-4.42L292.03-4.42Q293.89-2.24 295.26-1.50L295.26-1.50L295.26-1.50Q296.64-0.77 298.88-0.77L298.88-0.77ZM323.52-32.51L323.52-32.51Q323.52-30.02 324.74-28.16L324.74-28.16L324.74-28.16Q325.95-26.30 327.68-25.06L327.68-25.06L327.68-25.06Q329.41-23.81 332.54-21.89L332.54-21.89L332.54-21.89Q335.87-19.90 337.73-18.56L337.73-18.56L337.73-18.56Q339.58-17.22 340.90-15.14L340.90-15.14L340.90-15.14Q342.21-13.06 342.21-10.18L342.21-10.18L342.21-10.18Q342.21-7.10 340.67-4.61L340.67-4.61L340.67-4.61Q339.14-2.11 336.16-0.67L336.16-0.67L336.16-0.67Q333.18 0.77 329.02 0.77L329.02 0.77L329.02 0.77Q324.10 0.77 320-1.47L320-1.47L320-1.47Q319.68-1.66 319.58-1.92L319.58-1.92L319.58-1.92Q319.49-2.18 319.42-2.69L319.42-2.69L318.59-11.39L318.59-11.39Q318.53-11.65 318.88-11.71L318.88-11.71L318.88-11.71Q319.23-11.78 319.30-11.52L319.30-11.52L319.30-11.52Q320.32-6.91 323.10-3.58L323.10-3.58L323.10-3.58Q325.89-0.26 330.50-0.26L330.50-0.26L330.50-0.26Q333.70-0.26 335.90-2.02L335.90-2.02L335.90-2.02Q338.11-3.78 338.11-7.62L338.11-7.62L338.11-7.62Q338.11-10.50 336.83-12.61L336.83-12.61L336.83-12.61Q335.55-14.72 333.73-16.10L333.73-16.10L333.73-16.10Q331.90-17.47 328.77-19.33L328.77-19.33L328.77-19.33Q325.70-21.18 323.94-22.53L323.94-22.53L323.94-22.53Q322.18-23.87 320.96-25.92L320.96-25.92L320.96-25.92Q319.74-27.97 319.74-30.72L319.74-30.72L319.74-30.72Q319.74-33.92 321.44-36.19L321.44-36.19L321.44-36.19Q323.14-38.46 325.86-39.58L325.86-39.58L325.86-39.58Q328.58-40.70 331.65-40.70L331.65-40.70L331.65-40.70Q335.42-40.70 339.14-39.17L339.14-39.17L339.14-39.17Q340.10-38.85 340.10-38.08L340.10-38.08L340.54-30.72L340.54-30.72Q340.54-30.46 340.22-30.46L340.22-30.46L340.22-30.46Q339.90-30.46 339.84-30.72L339.84-30.72L339.84-30.72Q339.33-34.05 337.09-36.90L337.09-36.90L337.09-36.90Q334.85-39.74 330.62-39.74L330.62-39.74L330.62-39.74Q327.04-39.74 325.28-37.66L325.28-37.66L325.28-37.66Q323.52-35.58 323.52-32.51L323.52-32.51ZM363.26 0.77L363.26 0.77Q358.78 0.77 355.30-1.34L355.30-1.34L355.30-1.34Q351.81-3.46 349.89-7.04L349.89-7.04L349.89-7.04Q347.97-10.62 347.97-14.78L347.97-14.78L347.97-14.78Q347.97-19.78 350.56-23.39L350.56-23.39L350.56-23.39Q353.15-27.01 357.15-28.86L357.15-28.86L357.15-28.86Q361.15-30.72 365.31-30.72L365.31-30.72L365.31-30.72Q369.79-30.72 373.22-28.51L373.22-28.51L373.22-28.51Q376.64-26.30 378.46-22.78L378.46-22.78L378.46-22.78Q380.29-19.26 380.29-15.42L380.29-15.42L380.29-15.42Q380.29-11.14 377.98-7.39L377.98-7.39L377.98-7.39Q375.68-3.65 371.78-1.44L371.78-1.44L371.78-1.44Q367.87 0.77 363.26 0.77L363.26 0.77ZM364.93-0.58L364.93-0.58Q369.92-0.58 372.90-4.10L372.90-4.10L372.90-4.10Q375.87-7.62 375.87-13.82L375.87-13.82L375.87-13.82Q375.87-18.11 374.37-21.63L374.37-21.63L374.37-21.63Q372.86-25.15 369.98-27.26L369.98-27.26L369.98-27.26Q367.10-29.38 363.14-29.38L363.14-29.38L363.14-29.38Q358.02-29.38 355.20-25.95L355.20-25.95L355.20-25.95Q352.38-22.53 352.38-16.38L352.38-16.38L352.38-16.38Q352.38-11.97 353.89-8.38L353.89-8.38L353.89-8.38Q355.39-4.80 358.24-2.69L358.24-2.69L358.24-2.69Q361.09-0.58 364.93-0.58L364.93-0.58ZM420.03-0.77L420.03-0.77Q420.16-0.77 420.16-0.38L420.16-0.38L420.16-0.38Q420.16 0 420.03 0L420.03 0L420.03 0Q418.43 0 417.54-0.06L417.54-0.06L414.21-0.13L410.18-0.06L410.18-0.06Q409.22 0 407.62 0L407.62 0L407.62 0Q407.49 0 407.49-0.38L407.49-0.38L407.49-0.38Q407.49-0.77 407.62-0.77L407.62-0.77L407.62-0.77Q409.66-0.77 410.66-1.15L410.66-1.15L410.66-1.15Q411.65-1.54 412-2.46L412-2.46L412-2.46Q412.35-3.39 412.35-5.31L412.35-5.31L412.35-18.05L412.35-18.05Q412.35-24.19 410.21-26.59L410.21-26.59L410.21-26.59Q408.06-28.99 404.03-28.99L404.03-28.99L404.03-28.99Q401.15-28.99 398.69-27.81L398.69-27.81L398.69-27.81Q396.22-26.62 393.47-23.68L393.47-23.68L393.47-5.31L393.47-5.31Q393.47-3.39 393.82-2.46L393.82-2.46L393.82-2.46Q394.18-1.54 395.14-1.15L395.14-1.15L395.14-1.15Q396.10-0.77 398.08-0.77L398.08-0.77L398.08-0.77Q398.27-0.77 398.27-0.38L398.27-0.38L398.27-0.38Q398.27 0 398.08 0L398.08 0L398.08 0Q396.35 0 395.33-0.06L395.33-0.06L391.42-0.13L387.65-0.06L387.65-0.06Q386.62 0 384.83 0L384.83 0L384.83 0Q384.70 0 384.70-0.38L384.70-0.38L384.70-0.38Q384.70-0.77 384.83-0.77L384.83-0.77L384.83-0.77Q386.88-0.77 387.87-1.12L387.87-1.12L387.87-1.12Q388.86-1.47 389.25-2.37L389.25-2.37L389.25-2.37Q389.63-3.26 389.63-5.18L389.63-5.18L389.63-24.77L389.63-24.77Q389.63-26.69 389.28-27.58L389.28-27.58L389.28-27.58Q388.93-28.48 387.97-28.83L387.97-28.83L387.97-28.83Q387.01-29.18 385.02-29.18L385.02-29.18L385.02-29.18Q384.83-29.18 384.83-29.57L384.83-29.57L384.83-29.57Q384.83-29.95 385.02-29.95L385.02-29.95L389.18-29.89L392.32-29.95L392.32-29.95Q393.09-29.95 393.28-29.73L393.28-29.73L393.28-29.73Q393.47-29.50 393.47-28.74L393.47-28.74L393.47-24.96L393.47-24.96Q396.48-27.97 399.42-29.34L399.42-29.34L399.42-29.34Q402.37-30.72 405.70-30.72L405.70-30.72L405.70-30.72Q410.43-30.72 413.31-28.13L413.31-28.13L413.31-28.13Q416.19-25.54 416.19-20.16L416.19-20.16L416.19-5.18L416.19-5.18Q416.19-3.26 416.48-2.34L416.48-2.34L416.48-2.34Q416.77-1.41 417.57-1.09L417.57-1.09L417.57-1.09Q418.37-0.77 420.03-0.77L420.03-0.77Z" fill="url(#editing-outline-gradient)"></path></g></g><style>text {
  font-size: 64px;
  font-family: Arial Black;
  dominant-baseline: central;
  text-anchor: middle;
}</style></svg>